<svg xmlns="http://www.w3.org/2000/svg" shape-rendering="crispEdges" viewBox="0 0 130 20" height="75.591" width="130mm"><path d="M5.556 7.673v.264H6.88v-.264h.265v-.794H6.88v-.264h-.264V6.35h-.53v-.265h-.264v-.529h.794v.53h.529v-.53H6.88v-.264H5.556v.264h-.264v.53h.264v.264h.265v.265h.529v.264h.265v.794H5.82v-.53h-.53v.53zm2.117 0v.264h1.323v-.264h.264V6.35h-.264v-.265H7.673v.265h-.265v1.323zm.264 0V6.35h.794v1.323zm2.646.264v-.264h-.264V6.615h.264V6.35h-.264v-.794h.264v.265h.265v.264h.264v-.529h-.264v-.264h-.794v.264H9.79v.794h-.265v.265h.265v1.058h-.265v.264zm2.911-.264v-.265h-.53v.265H12.7V6.35h.53v-.265h-.53v-.793h-.265v.264h-.264v.53h-.53v.264h.53v1.323h.264v.264h.794v-.264zm1.852 0h.264V6.085h-.529v1.323h-.264v-.793h-.265v.793h-.265V6.085h-.529v1.588h.265v.264h.53v-.264h.264v.264h.529zm2.381.264v-.264h-.265V6.35h-.264v-.265H16.14v.265h.793v.265h-.793v.264h-.265v.794h.265v.264h.793v-.264h-.529v-.794h.53v.794h.264v.264zm1.323 0v-.264h-.265V6.615h.265V6.35h.265v.53h.529v-.53h-.265v-.265h-.794v.265h-.264v-.265h-.53v.265h.265v1.323h-.264v.264zm2.91-.264v-.265h-.529v.265h-.794v-.794h1.323V6.35h-.264v-.265h-1.323v.265h-.265v1.323h.265v.264h1.323v-.264zm-1.323-1.058V6.35h.794v.265zM25.4 7.937v-.264h-.265V6.615h.265v.264h.265v-.794H25.4v.265h-.265v-.794h.53v.265h.264v.264h.265v-.793h-1.852v.264h.264v2.117h-.264v.264zm2.91 0v-.264h-.264V6.35h-.265v-.265h-1.058v.265h.794v.265h-.794v.264h-.265v.794h.265v.264h.794v-.264h-.53v-.794h.53v.794h.264v.264zm1.852 0v-.264h-.264V6.085h-.794v.265h.265v1.323h-.265v.264zm-.793-2.645v.529h.529v-.53zm2.911 2.645v-.264h-.265V5.292h-.794v.264h.264v2.117h-.264v.264zm2.38 0v-.264h-.264V6.085h-.53v1.588h-.529V6.085h-.529v1.588h.265v.264h.794v-.264h.264v.264zm1.323 0v-.264h-.264V6.615h.264V6.35h.265v.53h.53v-.53h-.266v-.265h-.793v.265h-.265v-.265h-.529v.265h.265v1.323h-.265v.264zm2.911-.264v-.265h-.53v.265h-.793v-.794h1.323V6.35h-.265v-.265h-1.323v.265h-.264v1.323h.264v.264h1.323v-.264zM37.57 6.615V6.35h.794v.265zm2.382.793v.53h.53v-.53zm10.848.529v-.264h-.265V6.615h.794V6.35h.265v-.794h-.265v-.264h-1.587v.264h.264v2.117h-.264v.264zm-.265-1.587v-.794h.53v.794zm2.382 1.587v-.264h-.265V6.615h.265V6.35h.264v.53h.53v-.53h-.265v-.265h-.794v.265h-.265v-.265h-.529v.265h.265v1.323h-.265v.264zm2.91-.264v-.265h-.53v.265h-.793v-.794h1.323V6.35h-.265v-.265H54.24v.265h-.265v1.323h.265v.264h1.322v-.264zm-1.323-1.058V6.35h.794v.265zm3.44 1.058v-.265h-.265v-.264h-.264v-.265h-.53v-.264h-.264V6.35h.794v.265h.529V6.35h-.265v-.265h-1.323v.265h-.264v.265h.264v.264h.265v.265h.529v.264h.265v.265h-.794v-.265h-.53v.265h.265v.264h1.323v-.264zm2.116 0v-.265h-.264v-.264h-.265v-.265h-.529v-.264h-.265V6.35h.794v.265h.53V6.35h-.265v-.265h-1.323v.265h-.265v.265h.265v.264h.264v.265h.53v.264h.264v.265h-.794v-.265h-.529v.265h.265v.264h1.323v-.264zm3.97.264v-.264h-.265V5.292h-.794v.264h.264v2.117h-.264v.264zm2.38-.264v-.265h-.529v.265h-.794v-.794h1.323V6.35h-.264v-.265h-1.323v.265h-.265v1.323h.265v.264h1.323v-.264zm-1.323-1.058V6.35h.794v.265zm2.646 1.322v-.264h-.264V6.615h.264V6.35h-.264v-.794h.264v.265h.265v.264h.264v-.529h-.264v-.264h-.794v.264h-.264v.794h-.265v.265h.265v1.058h-.265v.264zm2.911-.264v-.265h-.53v.265h-.264V6.35h.53v-.265h-.53v-.793h-.265v.264h-.264v.53h-.53v.264h.53v1.323h.264v.264h.794v-.264zm2.381-1.588v1.852h.53V6.615h.264v1.058h.264V6.615h.265v1.322h.529V6.35h-.265v-.265h-.529v.265h-.264v-.265zm2.381 1.588v.264h1.323v-.264h.265V6.35h-.265v-.265h-1.323v.265h-.264v1.323zm.265 0V6.35h.794v1.323zm3.439.264v-.264h-.264V6.085h-.53v1.588h-.529V6.085h-.529v1.588h.265v.264h.794v-.264h.264v.264zm2.117-.264v-.265h-.265v-.264h-.264v-.265h-.53v-.264h-.264V6.35h.794v.265h.529V6.35h-.265v-.265H79.64v.265h-.265v.265h.265v.264h.264v.265h.53v.264h.264v.265h-.794v-.265h-.53v.265h.266v.264h1.322v-.264zm2.117 0v-.265h-.53v.265h-.793v-.794h1.323V6.35h-.265v-.265h-1.323v.265h-.264v1.323h.264v.264h1.323v-.264zM82.02 6.615V6.35h.794v.265zm3.97-1.059v2.381h1.322v-.264h.265V6.615h-.265V6.35h-.264v-.265h-.53v-.793h-.793v.264zm.529 2.117V6.35h.264v.265h.265v1.058zm3.175.264v-.264h-.265V6.085h-.53v1.588h-.528V6.085h-.53v1.588h.265v.264h.794v-.264h.265v.264zm2.116-.264v-.265h-.529v.265h-.264V6.35h.529v-.265h-.53v-.793h-.264v.264h-.265v.53h-.529v.264h.53v1.323h.264v.264h.794v-.264zm2.117 0v-.265h-.53v.265h-.264V6.35h.53v-.265h-.53v-.793h-.264v.264h-.265v.53h-.53v.264h.53v1.323h.265v.264h.793v-.264zm.529 0v.264h1.323v-.264h.265V6.35h-.265v-.265h-1.323v.265h-.264v1.323zm.265 0V6.35h.794v1.323zm1.852-1.323v1.587h.529V6.35h-.265v-.265h-.529v.265zm1.058 0v1.587h.53V6.35h-.265v-.265h-.794v.265zm4.763 1.323v-.265h-.53v.265h-.264V6.35h.53v-.265h-.53v-.793h-.265v.264h-.264v.53h-.53v.264h.53v1.323h.264v.264h.794v-.264zm.529 0v.264h1.323v-.264h.264V6.35h-.264v-.265h-1.323v.265h-.265v1.323zm.264 0V6.35h.794v1.323zm5.557 0v-.265h-.53v.265h-.793V6.35h.793v.265h.53V6.35h-.265v-.265h-1.323v.265h-.264v1.323h.264v.264h1.323v-.264zm.529 0v.264h1.323v-.264h.264V6.35h-.264v-.265h-1.323v.265h-.265v1.323zm.264 0V6.35h.794v1.323zm1.853-1.323v1.587h.529V6.35h-.265v-.265h-.53v.265zm1.058 0v1.587h.529V6.35h-.265v-.265h-.793v.265zm2.646 1.323v-.265h-.53v.265h-.264V6.35h.53v-.265h-.53v-.793h-.265v.264h-.264v.53h-.53v.264h.53v1.323h.264v.264h.794v-.264zm1.852.264v-.264h-.265V6.085h-.794v.265h.265v1.323h-.265v.264zm-.794-2.645v.529h.53v-.53zm1.588 1.058v1.587h.529V6.35h-.265v-.265h-.53v.265zm1.058 0v1.587h.529V6.35h-.265v-.265h-.793v.265zm2.646 1.587v-.264h-.265V6.085h-.53v1.588h-.528V6.085h-.53v1.588h.265v.264h.794v-.264h.264v.264zm2.116-.264v-.265h-.529v.265h-.794v-.794h1.323V6.35h-.264v-.265h-1.323v.265h-.265v1.323h.265v.264h1.323v-.264zm-1.323-1.058V6.35h.794v.265zm2.382.793v.53h.529v-.53zm-76.2 6.35v-.264h-.265V12.7h.265v-.265h-.265v-.529h-.529v.53h-.265v-.53h-.529v.53h-.264v.264h.264v.794h-.264v.264h.264v.53h.53v-.53h.264v.53h.53v-.53zm-1.059-.264V12.7h.265v.794zm1.852.529v.264h.794v-.264h.265v-.265h.264v-1.587h-.264v-.265h-.265v-.264h-.794v.264h-.264v.265h-.265v1.587h.265v.265zm.265 0v-.265h-.265v-1.587h.265v-.265h.265v.265h.264v1.587h-.264v.265zm0-1.323v.53h.265v-.53zm1.853 1.323v.264h.793v-.264h.264v-.265h.265v-1.587h-.265v-.265h-.264v-.264h-.794v.264h-.264v.265H50.8v1.587h.265v.265zm.264 0v-.265h-.265v-1.587h.265v-.265h.264v.265h.265v1.587h-.265v.265zm0-1.323v.53h.264v-.53zm1.852 1.323v.264h.794v-.264h.264v-.265h.265v-1.587h-.265v-.265h-.264v-.264h-.794v.264h-.265v.265h-.264v1.587h.264v.265zm.264 0v-.265h-.264v-1.587h.264v-.265h.265v.265h.265v1.587h-.265v.265zm0-1.323v.53h.265v-.53zm1.852 1.323v.264h.794v-.264h.265v-.265h.264v-1.587h-.264v-.265h-.265v-.264h-.794v.264h-.264v.265h-.265v1.587h.265v.265zm.265 0v-.265h-.265v-1.587h.265v-.265h.265v.265h.264v1.587h-.264v.265zm0-1.323v.53h.265v-.53zm1.853 1.323v.264h.793v-.264h.264v-.265h.265v-1.587h-.265v-.265h-.264v-.264h-.794v.264h-.264v.265h-.265v1.587h.265v.265zm.264 0v-.265h-.265v-1.587h.265v-.265h.264v.265h.265v1.587h-.265v.265zm0-1.323v.53h.264v-.53zm1.852 1.323v.264h.794v-.264h.264v-.265h.265v-1.587h-.265v-.265h-.264v-.264h-.794v.264h-.265v.265h-.264v1.587h.264v.265zm.264 0v-.265h-.264v-1.587h.264v-.265h.265v.265h.265v1.587h-.265v.265zm0-1.323v.53h.265v-.53zm1.852 1.323v.264h.794v-.264h.265v-.265h.264v-1.587h-.264v-.265h-.265v-.264h-.794v.264h-.264v.265h-.265v1.587h.265v.265zm.265 0v-.265h-.265v-1.587h.265v-.265h.265v.265h.264v1.587h-.264v.265zm0-1.323v.53h.265v-.53zm1.853 1.323v.264h.793v-.264h.264v-.265h.265v-1.587h-.265v-.265h-.264v-.264h-.794v.264h-.264v.265H63.5v1.587h.265v.265zm.264 0v-.265h-.265v-1.587h.265v-.265h.264v.265h.265v1.587h-.265v.265zm0-1.323v.53h.264v-.53zm2.116 1.058v.53h.53v-.53zm1.852.265v.264h.794v-.264h.265v-.265h.264v-1.587h-.264v-.265h-.265v-.264h-.794v.264h-.264v.265h-.265v1.587h.265v.265zm.265 0v-.265h-.265v-1.587h.265v-.265h.265v.265h.264v1.587h-.264v.265zm0-1.323v.53h.265v-.53zm1.853 1.323v.264h.793v-.264h.264v-.265h.265v-1.587h-.265v-.265h-.264v-.264h-.794v.264h-.264v.265h-.265v1.587h.265v.265zm.264 0v-.265h-.265v-1.587h.265v-.265h.264v.265h.265v1.587h-.265v.265zm0-1.323v.53h.264v-.53zm1.852 1.323v.264h.794v-.264h.264v-.265h.265v-1.587h-.265v-.265h-.264v-.264h-.794v.264h-.265v.265h-.264v1.587h.264v.265zm.264 0v-.265h-.264v-1.587h.264v-.265h.265v.265h.265v1.587h-.265v.265zm0-1.323v.53h.265v-.53zm1.852 1.323v.264h.794v-.264h.265v-.265h.264v-1.587h-.264v-.265h-.265v-.264h-.794v.264h-.264v.265h-.265v1.587h.265v.265zm.265 0v-.265h-.265v-1.587h.265v-.265h.265v.265h.264v1.587h-.264v.265zm0-1.323v.53h.265v-.53zm1.853 1.323v.264h.793v-.264h.264v-.265h.265v-1.587h-.265v-.265h-.264v-.264h-.794v.264h-.264v.265H76.2v1.587h.265v.265zm.264 0v-.265h-.265v-1.587h.265v-.265h.264v.265h.265v1.587h-.265v.265zm0-1.323v.53h.264v-.53zm1.852 1.323v.264h.794v-.264h.264v-.265h.265v-1.587h-.265v-.265h-.264v-.264h-.794v.264h-.265v.265h-.264v1.587h.264v.265zm.264 0v-.265h-.264v-1.587h.264v-.265h.265v.265h.265v1.587h-.265v.265zm0-1.323v.53h.265v-.53zm1.852 1.323v.264h.794v-.264h.265v-.265h.264v-1.587h-.264v-.265h-.265v-.264h-.794v.264h-.264v.265h-.265v1.587h.265v.265zm.265 0v-.265h-.265v-1.587h.265v-.265h.265v.265h.264v1.587h-.264v.265zm0-1.323v.53h.265v-.53zm1.853 1.323v.264h.793v-.264h.264v-.265h.265v-1.587h-.265v-.265h-.264v-.264h-.794v.264h-.264v.265h-.265v1.587h.265v.265zm.264 0v-.265h-.265v-1.587h.265v-.265h.264v.265h.265v1.587h-.265v.265zm0-1.323v.53h.264v-.53z" style="line-height:1.25;-inkscape-font-specification:VGA;text-align:center" font-size="4.233" font-family="VGA" letter-spacing="0" word-spacing="0" text-anchor="middle" fill="red"/><path d="M.67.67h128.66v18.66H.67z" fill="none" stroke="red" stroke-width="1.339"/></svg>